<?xml version="1.0" standalone="no"?><svg xmlns="http://www.w3.org/2000/svg" viewBox="0 0 1440 320"><path fill="#0099ff" fill-opacity="1" d="M0,0L30,21.3C60,43,120,85,180,90.7C240,96,300,64,360,85.3C420,107,480,181,540,197.3C600,213,660,171,720,149.3C780,128,840,128,900,138.7C960,149,1020,171,1080,192C1140,213,1200,235,1260,245.3C1320,256,1380,256,1410,256L1440,256L1440,320L1410,320C1380,320,1320,320,1260,320C1200,320,1140,320,1080,320C1020,320,960,320,900,320C840,320,780,320,720,320C660,320,600,320,540,320C480,320,420,320,360,320C300,320,240,320,180,320C120,320,60,320,30,320L0,320Z"></path></svg>